<?xml version="1.0" encoding="UTF-8" standalone="no"?>
<!-- Created with Inkscape (http://www.inkscape.org/) -->

<svg
   xmlns:dc="http://purl.org/dc/elements/1.1/"
   xmlns:cc="http://creativecommons.org/ns#"
   xmlns:rdf="http://www.w3.org/1999/02/22-rdf-syntax-ns#"
   xmlns:svg="http://www.w3.org/2000/svg"
   xmlns="http://www.w3.org/2000/svg"
   xmlns:xlink="http://www.w3.org/1999/xlink"
   xmlns:sodipodi="http://sodipodi.sourceforge.net/DTD/sodipodi-0.dtd"
   xmlns:inkscape="http://www.inkscape.org/namespaces/inkscape"
   inkscape:version="0.48.1 r9760"
   version="1.1"
   id="svg4531"
   height="128"
   width="256"
   sodipodi:docname="icon.svg">
  <sodipodi:namedview
     id="base"
     pagecolor="#ffffff"
     bordercolor="#666666"
     borderopacity="1.0"
     inkscape:pageopacity="0.0"
     inkscape:pageshadow="2"
     inkscape:zoom="1"
     inkscape:cx="138.20744"
     inkscape:cy="57.82177"
     inkscape:document-units="px"
     inkscape:current-layer="layer1"
     showgrid="false"
     inkscape:window-width="1440"
     inkscape:window-height="876"
     inkscape:window-x="0"
     inkscape:window-y="24"
     inkscape:window-maximized="1"
     inkscape:snap-bbox="true"
     inkscape:snap-nodes="true"
     inkscape:snap-grids="true"
     inkscape:bbox-nodes="true">
    <inkscape:grid
       type="xygrid"
       id="grid5953"
       empspacing="16"
       visible="true"
       enabled="true"
       snapvisiblegridlinesonly="true"
       spacingx="0.5px"
       spacingy="0.5px" />
  </sodipodi:namedview>
  <defs
     id="defs4533">
    <linearGradient
       inkscape:collect="always"
       id="linearGradient5984">
      <stop
         style="stop-color:#ff4949;stop-opacity:1"
         offset="0"
         id="stop5986" />
      <stop
         id="stop5988"
         offset="0.52083379"
         style="stop-color:#d4003f;stop-opacity:1" />
      <stop
         style="stop-color:#740023;stop-opacity:1"
         offset="1"
         id="stop5990" />
    </linearGradient>
    <linearGradient
       id="linearGradient4194-6"
       inkscape:collect="always">
      <stop
         id="stop4196-9"
         offset="0"
         style="stop-color:#000000;stop-opacity:1;" />
      <stop
         id="stop4198-8"
         offset="1"
         style="stop-color:#000000;stop-opacity:0;" />
    </linearGradient>
    <filter
       id="filter5869"
       inkscape:collect="always"
       color-interpolation-filters="sRGB">
      <feGaussianBlur
         id="feGaussianBlur5871"
         stdDeviation="1.92"
         inkscape:collect="always" />
    </filter>
    <linearGradient
       id="linearGradient5615">
      <stop
         id="stop5617"
         offset="0"
         style="stop-color:#f44800;stop-opacity:1" />
      <stop
         id="stop5619"
         offset="1"
         style="stop-color:#980101;stop-opacity:1" />
    </linearGradient>
    <linearGradient
       id="linearGradient5816">
      <stop
         id="stop5818"
         offset="0"
         style="stop-color:#f44800;stop-opacity:0" />
      <stop
         style="stop-color:#f44800;stop-opacity:1"
         offset="0.5"
         id="stop5824" />
      <stop
         id="stop5820"
         offset="1"
         style="stop-color:#f44800;stop-opacity:0" />
    </linearGradient>
    <radialGradient
       gradientUnits="userSpaceOnUse"
       gradientTransform="matrix(3.4419352,0,0,4.2542857,1952.8995,-111.54191)"
       r="6.1523438"
       fy="31.454706"
       fx="-800.17017"
       cy="31.454706"
       cx="-800.17017"
       id="radialGradient5883"
       xlink:href="#linearGradient4242-4"
       inkscape:collect="always" />
    <linearGradient
       id="linearGradient4242-4"
       inkscape:collect="always">
      <stop
         id="stop4244-9"
         offset="0"
         style="stop-color:#ffffff;stop-opacity:1" />
      <stop
         id="stop4246-1"
         offset="1"
         style="stop-color:#e5e5e5;stop-opacity:1" />
    </linearGradient>
    <radialGradient
       gradientUnits="userSpaceOnUse"
       gradientTransform="matrix(3.4419352,0,0,4.2542857,1952.8995,-111.54191)"
       r="6.1523438"
       fy="31.454706"
       fx="-800.17017"
       cy="31.454706"
       cx="-800.17017"
       id="radialGradient4510"
       xlink:href="#linearGradient4242-4"
       inkscape:collect="always" />
    <radialGradient
       inkscape:collect="always"
       xlink:href="#linearGradient4242-4"
       id="radialGradient4529"
       gradientUnits="userSpaceOnUse"
       gradientTransform="matrix(3.4419352,0,0,4.2542857,1952.8995,-111.54191)"
       cx="-800.17017"
       cy="31.454706"
       fx="-800.17017"
       fy="31.454706"
       r="6.1523438" />
    <radialGradient
       r="6.1523438"
       fy="31.454706"
       fx="-800.17017"
       cy="31.454706"
       cx="-800.17017"
       gradientTransform="matrix(3.4419352,0,0,4.2542857,1952.8995,-111.54191)"
       gradientUnits="userSpaceOnUse"
       id="radialGradient5427"
       xlink:href="#linearGradient4242-4"
       inkscape:collect="always" />
    <radialGradient
       r="6.1523438"
       fy="31.454706"
       fx="-800.17017"
       cy="31.454706"
       cx="-800.17017"
       gradientTransform="matrix(3.4419352,0,0,4.2542857,1952.8995,-111.54191)"
       gradientUnits="userSpaceOnUse"
       id="radialGradient5449"
       xlink:href="#linearGradient4242-4"
       inkscape:collect="always" />
    <linearGradient
       y2="-11.296875"
       x2="-800.01562"
       y1="72.75"
       x1="-800"
       gradientUnits="userSpaceOnUse"
       id="linearGradient5462"
       xlink:href="#linearGradient4194-6"
       inkscape:collect="always" />
    <radialGradient
       r="6.1523438"
       fy="31.454706"
       fx="-800.17017"
       cy="31.454706"
       cx="-800.17017"
       gradientTransform="matrix(3.4419352,0,0,4.2542857,1952.8995,-111.54191)"
       gradientUnits="userSpaceOnUse"
       id="radialGradient5470"
       xlink:href="#linearGradient4242-4"
       inkscape:collect="always" />
    <radialGradient
       r="6.1523438"
       fy="31.454706"
       fx="-800.17017"
       cy="31.454706"
       cx="-800.17017"
       gradientTransform="matrix(3.4419352,0,0,4.2542857,2816.8995,844.82027)"
       gradientUnits="userSpaceOnUse"
       id="radialGradient5474"
       xlink:href="#linearGradient4242-4"
       inkscape:collect="always" />
    <radialGradient
       r="48"
       fy="22.4"
       fx="-810.13336"
       cy="22.4"
       cx="-810.13336"
       gradientUnits="userSpaceOnUse"
       id="radialGradient5466-283"
       xlink:href="#linearGradient5615-605"
       inkscape:collect="always" />
    <linearGradient
       id="linearGradient5615-605">
      <stop
         id="stop5686"
         offset="0"
         style="stop-color:#f40001;stop-opacity:1" />
      <stop
         id="stop5688"
         offset="1"
         style="stop-color:#98002e;stop-opacity:1" />
    </linearGradient>
    <radialGradient
       r="48"
       fy="70"
       fx="-776"
       cy="70"
       cx="-776"
       gradientTransform="matrix(1.2291321,-0.01397886,0.01368266,1.2030891,176.84863,-25.063827)"
       gradientUnits="userSpaceOnUse"
       id="radialGradient5464-647"
       xlink:href="#linearGradient5625-963"
       inkscape:collect="always" />
    <linearGradient
       id="linearGradient5625-963"
       inkscape:collect="always">
      <stop
         id="stop5692"
         offset="0"
         style="stop-color:#f40001;stop-opacity:1" />
      <stop
         style="stop-color:#d4003f;stop-opacity:1"
         offset="0.52083379"
         id="stop5694" />
      <stop
         id="stop5696"
         offset="1"
         style="stop-color:#98002e;stop-opacity:1" />
    </linearGradient>
    <linearGradient
       gradientTransform="translate(864,956.36218)"
       y2="-6.296875"
       x2="-768"
       y1="-6.296875"
       x1="-832.03125"
       gradientUnits="userSpaceOnUse"
       id="linearGradient5479-318"
       xlink:href="#linearGradient5816-889"
       inkscape:collect="always" />
    <linearGradient
       id="linearGradient5816-889">
      <stop
         id="stop5700"
         offset="0"
         style="stop-color:#f40001;stop-opacity:0" />
      <stop
         style="stop-color:#f40001;stop-opacity:1"
         offset="0.5"
         id="stop5702" />
      <stop
         id="stop5704"
         offset="1"
         style="stop-color:#f40001;stop-opacity:0" />
    </linearGradient>
    <linearGradient
       inkscape:collect="always"
       xlink:href="#linearGradient4194-6"
       id="linearGradient5837"
       gradientUnits="userSpaceOnUse"
       x1="-800"
       y1="72.75"
       x2="-800.01562"
       y2="-11.296875" />
    <radialGradient
       inkscape:collect="always"
       xlink:href="#linearGradient5625-963"
       id="radialGradient5839"
       gradientUnits="userSpaceOnUse"
       gradientTransform="matrix(1.2291321,-0.01397886,0.01368266,1.2030891,176.84863,-25.063827)"
       cx="-776"
       cy="70"
       fx="-776"
       fy="70"
       r="48" />
    <radialGradient
       inkscape:collect="always"
       xlink:href="#linearGradient5615-605"
       id="radialGradient5841"
       gradientUnits="userSpaceOnUse"
       cx="-810.13336"
       cy="22.4"
       fx="-810.13336"
       fy="22.4"
       r="48" />
    <linearGradient
       inkscape:collect="always"
       xlink:href="#linearGradient5816-889"
       id="linearGradient5843"
       gradientUnits="userSpaceOnUse"
       gradientTransform="translate(864,956.36218)"
       x1="-832.03125"
       y1="-6.296875"
       x2="-768"
       y2="-6.296875" />
    <linearGradient
       inkscape:collect="always"
       xlink:href="#linearGradient4194-6-5"
       id="linearGradient5837-1"
       gradientUnits="userSpaceOnUse"
       x1="-800"
       y1="72.75"
       x2="-800.01562"
       y2="-11.296875" />
    <linearGradient
       id="linearGradient4194-6-5"
       inkscape:collect="always">
      <stop
         id="stop4196-9-0"
         offset="0"
         style="stop-color:#000000;stop-opacity:1;" />
      <stop
         id="stop4198-8-8"
         offset="1"
         style="stop-color:#000000;stop-opacity:0;" />
    </linearGradient>
    <filter
       id="filter5869-0"
       inkscape:collect="always"
       color-interpolation-filters="sRGB">
      <feGaussianBlur
         id="feGaussianBlur5871-7"
         stdDeviation="1.92"
         inkscape:collect="always" />
    </filter>
    <radialGradient
       inkscape:collect="always"
       xlink:href="#linearGradient5625-963-5"
       id="radialGradient5839-1"
       gradientUnits="userSpaceOnUse"
       gradientTransform="matrix(1.2291321,-0.01397886,0.01368266,1.2030891,176.84863,-25.063827)"
       cx="-776"
       cy="70"
       fx="-776"
       fy="70"
       r="48" />
    <linearGradient
       id="linearGradient5625-963-5"
       inkscape:collect="always">
      <stop
         id="stop5692-1"
         offset="0"
         style="stop-color:#f40001;stop-opacity:1" />
      <stop
         style="stop-color:#d4003f;stop-opacity:1"
         offset="0.52083379"
         id="stop5694-3" />
      <stop
         id="stop5696-3"
         offset="1"
         style="stop-color:#98002e;stop-opacity:1" />
    </linearGradient>
    <radialGradient
       inkscape:collect="always"
       xlink:href="#linearGradient5615-605-4"
       id="radialGradient5841-9"
       gradientUnits="userSpaceOnUse"
       cx="-810.13336"
       cy="22.4"
       fx="-810.13336"
       fy="22.4"
       r="48" />
    <linearGradient
       id="linearGradient5615-605-4">
      <stop
         id="stop5686-8"
         offset="0"
         style="stop-color:#f40001;stop-opacity:1" />
      <stop
         id="stop5688-2"
         offset="1"
         style="stop-color:#98002e;stop-opacity:1" />
    </linearGradient>
    <linearGradient
       inkscape:collect="always"
       xlink:href="#linearGradient5816-889-6"
       id="linearGradient5843-3"
       gradientUnits="userSpaceOnUse"
       gradientTransform="translate(864,956.36218)"
       x1="-832.03125"
       y1="-6.296875"
       x2="-768"
       y2="-6.296875" />
    <linearGradient
       id="linearGradient5816-889-6">
      <stop
         id="stop5700-0"
         offset="0"
         style="stop-color:#f40001;stop-opacity:0" />
      <stop
         style="stop-color:#f40001;stop-opacity:1"
         offset="0.5"
         id="stop5702-9" />
      <stop
         id="stop5704-0"
         offset="1"
         style="stop-color:#f40001;stop-opacity:0" />
    </linearGradient>
    <linearGradient
       inkscape:collect="always"
       xlink:href="#linearGradient5816-889-6"
       id="linearGradient5960"
       gradientUnits="userSpaceOnUse"
       gradientTransform="matrix(0.13333289,0,0,0.13333289,250.66631,1032.0955)"
       x1="-832.03125"
       y1="-6.296875"
       x2="-768"
       y2="-6.296875" />
    <radialGradient
       inkscape:collect="always"
       xlink:href="#linearGradient5984"
       id="radialGradient5969"
       gradientUnits="userSpaceOnUse"
       gradientTransform="matrix(1.2291321,-0.01397886,0.01368266,1.2030891,176.84863,-25.063827)"
       cx="-776"
       cy="70"
       fx="-776"
       fy="70"
       r="48" />
    <radialGradient
       inkscape:collect="always"
       xlink:href="#linearGradient5615-605-4"
       id="radialGradient5973"
       gradientUnits="userSpaceOnUse"
       cx="-810.13336"
       cy="22.4"
       fx="-810.13336"
       fy="22.4"
       r="48" />
    <radialGradient
       inkscape:collect="always"
       xlink:href="#linearGradient5984"
       id="radialGradient5999"
       gradientUnits="userSpaceOnUse"
       gradientTransform="matrix(1.2291321,-0.01397886,0.01368266,1.2030891,176.84863,-25.063827)"
       cx="-776"
       cy="70"
       fx="-776"
       fy="70"
       r="48" />
    <radialGradient
       inkscape:collect="always"
       xlink:href="#linearGradient5615-605-4"
       id="radialGradient6001"
       gradientUnits="userSpaceOnUse"
       cx="-810.13336"
       cy="22.4"
       fx="-810.13336"
       fy="22.4"
       r="48" />
  </defs>
  <metadata
     id="metadata4536">
    <rdf:RDF>
      <cc:Work
         rdf:about="">
        <dc:format>image/svg+xml</dc:format>
        <dc:type
           rdf:resource="http://purl.org/dc/dcmitype/StillImage" />
        <dc:title></dc:title>
      </cc:Work>
    </rdf:RDF>
  </metadata>
  <g
     transform="translate(0,-924.36218)"
     id="layer1"
     inkscape:groupmode="layer"
     inkscape:label="Layer 1">
    <g
       id="g5825"
       inkscape:export-filename="/home/andre/dev/previsto/ubuntu/icons/32x32/apps/previsto.png"
       inkscape:export-xdpi="22.5"
       inkscape:export-ydpi="22.5">
      <rect
         style="fill:#000000;fill-opacity:0;stroke:none"
         id="rect5942"
         width="128"
         height="128"
         x="0"
         y="924.36218" />
      <path
         transform="translate(866,959.36218)"
         sodipodi:type="arc"
         style="opacity:0.76499999;fill:url(#linearGradient5837);fill-opacity:1;stroke:none;display:inline;filter:url(#filter5869)"
         id="path5591-3"
         sodipodi:cx="-800"
         sodipodi:cy="32"
         sodipodi:rx="48"
         sodipodi:ry="48"
         d="m -752,32 c 0,26.509668 -21.49033,48 -48,48 -26.50967,0 -48,-21.490332 -48,-48 0,-26.509668 21.49033,-48 48,-48 26.50967,0 48,21.490332 48,48 z" />
      <path
         sodipodi:type="arc"
         style="fill:url(#radialGradient5839);fill-opacity:1;stroke:none"
         id="path5591"
         sodipodi:cx="-800"
         sodipodi:cy="32"
         sodipodi:rx="48"
         sodipodi:ry="48"
         d="m -752,32 c 0,26.509668 -21.49033,48 -48,48 -26.50967,0 -48,-21.490332 -48,-48 0,-26.509668 21.49033,-48 48,-48 26.50967,0 48,21.490332 48,48 z"
         transform="translate(864,956.36218)" />
      <path
         sodipodi:type="arc"
         style="fill:url(#radialGradient5841);fill-opacity:1;stroke:none;display:inline"
         id="path5591-0"
         sodipodi:cx="-800"
         sodipodi:cy="32"
         sodipodi:rx="48"
         sodipodi:ry="48"
         d="m -752,32 c 0,26.509668 -21.49033,48 -48,48 -26.50967,0 -48,-21.490332 -48,-48 0,-26.509668 21.49033,-48 48,-48 26.50967,0 48,21.490332 48,48 z"
         transform="matrix(0.9375,0,0,0.9375,814,958.36218)" />
      <path
         style="opacity:0.56190479;fill:#e0000c;fill-opacity:1;stroke:none;display:inline"
         d="m 64,943.36218 c -24.85281,0 -45,20.14719 -45,45 0,6.2132 1.25413,12.14752 3.53125,17.53122 C 58.2569,990.7605 83.692,980.16195 106.21875,972.73718 99.86703,955.58882 83.3573,943.36218 64,943.36218 z"
         id="path5591-0-0"
         sodipodi:nodetypes="csccc"
         inkscape:connector-curvature="0" />
      <path
         style="opacity:0.8;fill:url(#linearGradient5843);fill-opacity:1;stroke:none;display:inline"
         d="m 64,943.36218 c -12.5224,0 -23.87343,5.12045 -32.03125,13.375 8.51241,-7.07669 19.73851,-11.375 32.03125,-11.375 12.29999,0 23.48577,4.32211 32,11.40625 -8.15886,-8.26286 -19.47045,-13.40625 -32,-13.40625 z"
         id="path5591-0-5"
         inkscape:connector-curvature="0" />
      <g
         transform="matrix(1.9020152,0,0,1.9020152,-55.366679,909.96021)"
         style="font-size:40px;font-style:normal;font-weight:normal;line-height:125%;letter-spacing:0px;word-spacing:0px;fill:#1a1a1a;fill-opacity:1;stroke:none;font-family:Palatino;-inkscape-font-specification:Palatino"
         id="text5486-4">
        <path
           style="fill:#1a1a1a"
           d="m 60.850526,30.086083 c 1.399998,-0.32 2.560001,-0.48 3.92,-0.48 4.319995,0 6.64,2.000004 6.64,5.8 0,3.599996 -2.440004,6.12 -5.92,6.12 -0.84,0 -1.440002,-0.08 -2.48,-0.4 l 0.4,1.44 c 0.959999,0.2 1.52,0.24 2.32,0.24 5.479994,0 9.68,-3.720005 9.68,-8.52 0,-3.839996 -3.120006,-6.2 -8.2,-6.2 -0.2,0 -0.600001,0 -1.12,0.04 -1.479999,0.04 -4.520002,0.08 -5.68,0.08 -0.88,0 -0.880007,0 -7.28,-0.12 l 0,1.2 1.8,0.12 c 1.799998,0.12 2.12,0.640003 2.12,3.6 l 0,17.96 c 0,3.159997 -0.200002,3.48 -2.04,3.6 l -1.92,0.12 0,1.2 c 2.359997,-0.08 3.760002,-0.12 5.84,-0.12 2.079997,0 3.520002,0.04 5.88,0.12 l 0,-1.2 -1.92,-0.12 c -1.839999,-0.12 -2.04,-0.440003 -2.04,-3.6 l 0,-20.88"
           id="path5491-2"
           inkscape:connector-curvature="0" />
      </g>
      <g
         transform="matrix(1.9020152,0,0,1.9020152,-56.205479,909.21111)"
         style="font-size:40px;font-style:normal;font-weight:normal;line-height:125%;letter-spacing:0px;word-spacing:0px;fill:#ffffff;fill-opacity:1;stroke:none;font-family:Palatino;-inkscape-font-specification:Palatino"
         id="text5486">
        <path
           d="m 60.850526,30.086083 c 1.399998,-0.32 2.560001,-0.48 3.92,-0.48 4.319995,0 6.64,2.000004 6.64,5.8 0,3.599996 -2.440004,6.12 -5.92,6.12 -0.84,0 -1.440002,-0.08 -2.48,-0.4 l 0.4,1.44 c 0.959999,0.2 1.52,0.24 2.32,0.24 5.479994,0 9.68,-3.720005 9.68,-8.52 0,-3.839996 -3.120006,-6.2 -8.2,-6.2 -0.2,0 -0.600001,0 -1.12,0.04 -1.479999,0.04 -4.520002,0.08 -5.68,0.08 -0.88,0 -0.880007,0 -7.28,-0.12 l 0,1.2 1.8,0.12 c 1.799998,0.12 2.12,0.640003 2.12,3.6 l 0,17.96 c 0,3.159997 -0.200002,3.48 -2.04,3.6 l -1.92,0.12 0,1.2 c 2.359997,-0.08 3.760002,-0.12 5.84,-0.12 2.079997,0 3.520002,0.04 5.88,0.12 l 0,-1.2 -1.92,-0.12 c -1.839999,-0.12 -2.04,-0.440003 -2.04,-3.6 l 0,-20.88"
           id="path5491"
           inkscape:connector-curvature="0" />
      </g>
    </g>
    <g
       id="g5992"
       transform="translate(-8.000006,-48.000003)"
       inkscape:export-filename="/home/andre/dev/previsto/ubuntu/icons/16x16/apps/previsto.png"
       inkscape:export-xdpi="90"
       inkscape:export-ydpi="90">
      <rect
         style="fill:#000000;fill-opacity:0;stroke:none"
         id="rect5942-0"
         width="16"
         height="16"
         x="136"
         y="1028.3622" />
      <path
         sodipodi:type="arc"
         style="fill:url(#radialGradient5999);fill-opacity:1;stroke:none"
         id="path5591-00"
         sodipodi:cx="-800"
         sodipodi:cy="32"
         sodipodi:rx="48"
         sodipodi:ry="48"
         d="m -752,32 a 48,48 0 1 1 -96,0 48,48 0 1 1 96,0 z"
         transform="matrix(0.16666692,0,0,0.16666692,277.33353,1031.0288)" />
      <path
         sodipodi:type="arc"
         style="fill:url(#radialGradient6001);fill-opacity:1;stroke:none;display:inline"
         id="path5591-0-04"
         sodipodi:cx="-800"
         sodipodi:cy="32"
         sodipodi:rx="48"
         sodipodi:ry="48"
         d="m -752,32 a 48,48 0 1 1 -96,0 48,48 0 1 1 96,0 z"
         transform="matrix(0.14583326,0,0,0.14583326,260.66661,1031.6955)" />
      <path
         inkscape:transform-center-y="-1.83123"
         style="opacity:0.56190479;fill:#e0000c;fill-opacity:1;stroke:none;display:inline"
         d="m 144,1030.3622 c -3.3137,0 -5.99998,2.6863 -5.99998,6 0,0.8284 0.16722,1.6196 0.47084,2.3375 4.76339,-2.0177 8.15473,-3.4308 11.15828,-4.4208 -0.84688,-2.2865 -3.04818,-3.9167 -5.62914,-3.9167 z"
         id="path5591-0-0-0"
         sodipodi:nodetypes="csccc"
         inkscape:connector-curvature="0" />
      <path
         sodipodi:nodetypes="ccccccccccsssccsssc"
         transform="translate(0,924.36218)"
         inkscape:connector-curvature="0"
         id="path5982"
         d="m 141,108 0,1 1,0 0,6 -1,0 0,1 3,0 0,-1 -1,0 0,-6 c 0,0 1,0 2,0 0.5,0 1.5,0 1.5,1.5 0,1.5 -1,1.5 -1.5,1.5 -0.33333,0 -1,0 -1,0 l 0,1 c 0,0 0.66667,0 1,0 1.5,0 2.5,-1 2.5,-2.5 0,-1.5 -1,-2.5 -2.5,-2.5 -1,0 -4,0 -4,0 z"
         style="fill:#ffffff;stroke:none" />
    </g>
  </g>
</svg>
